<?xml version="1.0" encoding="iso-8859-1"?>
<!-- Generator: Adobe Illustrator 19.0.0, SVG Export Plug-In . SVG Version: 6.00 Build 0)  -->
<svg version="1.1" id="Capa_1" xmlns="http://www.w3.org/2000/svg" xmlns:xlink="http://www.w3.org/1999/xlink" x="0px" y="0px"
	 viewBox="0 0 511.997 511.997" style="enable-background:new 0 0 511.997 511.997;" xml:space="preserve">
<path style="fill:#6C4127;" d="M509.945,355.65c-3.408-0.283-6.622-2.552-6.613-6.957c0.026-10.586-2.719-20.73-4.15-31.157
	c-0.503-3.69,1.474-6.472,4.079-7.972c-12.811-64.45-42.158-135.549-103.721-197.112C338.224,51.145,267.488,21.851,203.259,8.969
	c-0.477,3.17-2.693,5.951-6.86,5.756c-11.583-0.539-24.968,0.539-34.062-7.743c-0.053,0-0.088,0.018-0.15,0.018
	c-3.708,0-5.906-2.278-6.701-5.024C73.043-5.536,10.791,10.788,10.791,10.788s-16.395,62.49-8.767,145.19
	c1.421,0.494,2.755,1.386,3.708,3.064c6.719,11.742,6.701,24.862,8.449,37.911c0.556,4.141-2.057,6.304-5.2,6.754
	c12.952,64.106,42.334,134.675,103.482,195.823c61.448,61.448,132.406,90.804,196.759,103.659c1.077-2.084,3.037-3.699,6.092-3.726
	c12.148-0.079,25.047-1.218,35.977,5.138c2.269,1.324,3.24,3.258,3.426,5.253c83.344,7.919,146.488-8.661,146.488-8.661
	S517.643,438.526,509.945,355.65z"/>
<path style="fill:#E7ECED;" d="M361.947,361.936L361.947,361.936c-6.604,6.604-17.313,6.604-23.926,0L150.056,173.971
	c-6.604-6.604-6.604-17.313,0-23.926l0,0c6.604-6.604,17.313-6.604,23.926,0L361.947,338.01
	C368.551,344.623,368.551,355.332,361.947,361.936z"/>
<g>
	<path style="fill:#BE7C6D;" d="M1.997,155.66c1.421,15.512,3.664,31.704,7.045,48.364c27.996-9.279,66.799-31.024,115.384-79.609
		s70.33-87.387,79.609-115.384c-16.66-3.381-32.861-5.624-48.364-7.045c-12.687,23.935-33.479,52.902-67.125,86.54
		S25.932,142.964,1.997,155.66z"/>
	<path style="fill:#BE7C6D;" d="M509.998,356.33c-1.421-15.512-3.664-31.704-7.045-48.364
		c-27.996,9.279-66.799,31.024-115.384,79.609s-70.33,87.387-79.609,115.384c16.66,3.381,32.861,5.624,48.364,7.045
		c12.687-23.935,33.479-52.902,67.125-86.54C457.095,389.809,486.072,369.017,509.998,356.33z"/>
</g>
<g>
	<path style="fill:#AFB6BB;" d="M154.329,222.953c-2.26,0-4.52-0.865-6.242-2.587c-3.452-3.452-3.452-9.032,0-12.484l59.806-59.797
		c3.452-3.452,9.041-3.452,12.484,0c3.452,3.452,3.452,9.032,0,12.484l-59.806,59.798
		C158.841,222.088,156.589,222.953,154.329,222.953z"/>
	<path style="fill:#AFB6BB;" d="M190.21,258.833c-2.26,0-4.52-0.865-6.242-2.587c-3.452-3.452-3.452-9.032,0-12.484l59.806-59.797
		c3.452-3.452,9.041-3.452,12.484,0c3.452,3.452,3.452,9.032,0,12.484l-59.806,59.797C194.73,257.977,192.47,258.833,190.21,258.833
		z"/>
	<path style="fill:#AFB6BB;" d="M297.859,366.492c-2.26,0-4.52-0.865-6.242-2.587c-3.452-3.452-3.452-9.032,0-12.484l59.806-59.797
		c3.452-3.452,9.041-3.452,12.484,0c3.452,3.452,3.452,9.032,0,12.484l-59.806,59.797
		C302.38,365.627,300.119,366.492,297.859,366.492z"/>
	<path style="fill:#AFB6BB;" d="M261.979,330.603c-2.26,0-4.52-0.865-6.242-2.587c-3.452-3.452-3.452-9.032,0-12.484l59.806-59.797
		c3.452-3.452,9.041-3.452,12.484,0c3.452,3.452,3.452,9.032,0,12.484l-59.806,59.798
		C266.499,329.746,264.239,330.603,261.979,330.603z"/>
	<path style="fill:#AFB6BB;" d="M226.099,294.723c-2.26,0-4.52-0.865-6.242-2.587c-3.452-3.452-3.452-9.032,0-12.484l59.806-59.797
		c3.452-3.452,9.041-3.452,12.484,0c3.452,3.452,3.452,9.032,0,12.484l-59.806,59.797
		C230.61,293.857,228.359,294.723,226.099,294.723z"/>
</g>
<g>
</g>
<g>
</g>
<g>
</g>
<g>
</g>
<g>
</g>
<g>
</g>
<g>
</g>
<g>
</g>
<g>
</g>
<g>
</g>
<g>
</g>
<g>
</g>
<g>
</g>
<g>
</g>
<g>
</g>
</svg>
