<?xml version="1.0" encoding="iso-8859-1"?>
<!-- Generator: Adobe Illustrator 19.0.0, SVG Export Plug-In . SVG Version: 6.00 Build 0)  -->
<svg version="1.1" id="Capa_1" xmlns="http://www.w3.org/2000/svg" xmlns:xlink="http://www.w3.org/1999/xlink" x="0px" y="0px"
	 viewBox="0 0 511.998 511.998" style="enable-background:new 0 0 511.998 511.998;" xml:space="preserve">
<polygon style="fill:#E7ECED;" points="423.722,199.044 406.067,97.103 312.953,88.276 238.316,35.31 194.205,35.31 
	101.471,308.418 102.027,308.966 33.048,379.427 132.57,478.95 212.884,397.241 213.431,397.789 494.343,317.793 503.17,273.682 "/>
<path style="fill:#DD352E;" d="M20.61,491.388L20.61,491.388c-27.48-27.48-27.48-72.042,0-99.522l12.438-12.438l99.522,99.522
	l-12.438,12.438C92.652,518.868,48.09,518.868,20.61,491.388z"/>
<polygon style="fill:#E7ECED;" points="132.57,478.95 33.048,379.427 101.471,298.567 213.431,410.527 "/>
<g>
	<polygon style="fill:#AFB6BB;" points="101.471,298.567 194.205,8.828 238.316,0 312.953,74.637 157.455,354.542 	"/>
	<polygon style="fill:#AFB6BB;" points="213.431,410.527 503.17,317.793 511.998,273.682 437.361,199.044 157.455,354.542 	"/>
</g>
<g>
	<path style="fill:#E7ECED;" d="M418.699,313.609c-3.699,0-7.142-2.339-8.377-6.038c-1.545-4.626,0.953-9.631,5.579-11.167
		l42.434-14.151l-28.487-28.487l-25.309,15.042c-4.202,2.498-9.604,1.112-12.103-3.081c-2.498-4.193-1.112-9.604,3.072-12.094
		l31.206-18.556c3.487-2.066,7.901-1.501,10.752,1.342l43.432,43.432c2.163,2.163,3.054,5.297,2.348,8.271
		c-0.706,2.984-2.895,5.376-5.8,6.347l-55.985,18.661C420.562,313.468,419.617,313.609,418.699,313.609z"/>
	<path style="fill:#E7ECED;" d="M250.745,120.797c-1.536,0-3.09-0.397-4.502-1.245c-4.193-2.489-5.561-7.91-3.072-12.094
		l15.051-25.309l-28.487-28.487l-14.142,42.434c-1.545,4.617-6.524,7.133-11.167,5.579c-4.626-1.536-7.124-6.532-5.579-11.167
		l18.662-55.985c0.971-2.895,3.372-5.094,6.347-5.8c2.993-0.689,6.109,0.185,8.271,2.357l43.432,43.441
		c2.86,2.851,3.407,7.283,1.342,10.752l-18.556,31.206C256.686,119.252,253.756,120.797,250.745,120.797z"/>
</g>
<path style="fill:#8D9499;" d="M425.09,99.399c-2.119-0.335-4.096-1.404-4.935-3.381c-0.044-0.097-0.088-0.168-0.132-0.265
	c-0.274,0.026-0.477,0.159-0.768,0.159c-5.464,0-7.654-4.89-6.797-9.022l-99.505-12.253L157.455,354.542l279.905-155.507
	L425.09,99.399z"/>
<polygon style="fill:#AFB6BB;" points="159.521,456.139 186.481,433.337 78.66,325.517 55.859,352.477 "/>
<g>
	<path style="fill:#EA6E6E;" d="M27.513,432.614c-4.829-0.609-9.225,2.887-9.799,7.742l-4.89,41.666
		c2.304,3.275,4.855,6.435,7.786,9.366l0,0c2.083,2.083,4.29,3.955,6.55,5.72c1.13-1.298,1.995-2.851,2.216-4.696l5.87-50.008
		C35.82,437.566,32.351,433.178,27.513,432.614z"/>
	<path style="fill:#EA6E6E;" d="M69.586,476.751l-50.008,5.87c-1.836,0.221-3.372,1.103-4.67,2.242
		c1.757,2.251,3.628,4.449,5.703,6.524l0,0c2.931,2.931,6.091,5.482,9.366,7.786l41.675-4.891c4.838-0.565,8.307-4.961,7.733-9.79
		C78.819,479.638,74.388,476.125,69.586,476.751z"/>
	<path style="fill:#EA6E6E;" d="M68.032,443.966c-3.452-3.452-9.031-3.452-12.482,0l-40.748,40.748
		c1.792,2.304,3.69,4.555,5.809,6.674l0,0c2.119,2.119,4.37,4.017,6.674,5.809l40.748-40.748
		C71.484,452.996,71.484,447.417,68.032,443.966z"/>
</g>
<path style="fill:#E7ECED;" d="M423.722,88.276l-11.114-1.368l-39.265,39.265c-3.452,3.452-3.452,9.031,0,12.482
	c1.721,1.721,3.981,2.586,6.241,2.586c2.26,0,4.52-0.865,6.241-2.586L425.09,99.39L423.722,88.276z"/>
<g>
</g>
<g>
</g>
<g>
</g>
<g>
</g>
<g>
</g>
<g>
</g>
<g>
</g>
<g>
</g>
<g>
</g>
<g>
</g>
<g>
</g>
<g>
</g>
<g>
</g>
<g>
</g>
<g>
</g>
</svg>
