<?xml version="1.0" encoding="iso-8859-1"?>
<!-- Generator: Adobe Illustrator 19.0.0, SVG Export Plug-In . SVG Version: 6.00 Build 0)  -->
<svg version="1.1" id="Capa_1" xmlns="http://www.w3.org/2000/svg" xmlns:xlink="http://www.w3.org/1999/xlink" x="0px" y="0px"
	 viewBox="0 0 512 512" style="enable-background:new 0 0 512 512;" xml:space="preserve">
<circle style="fill:#F76363;" cx="256" cy="256" r="256"/>
<g>
	<path style="fill:#A53D3D;" d="M256.018,476.69c-4.873,0.38-8.845-3.937-8.845-8.828c0-4.873,3.955-8.828,8.828-8.828l0,0
		c0,0,0.009,0,0.018,0c36.97,0,76.023-12.041,109.965-33.907c4.096-2.639,9.56-1.457,12.2,2.639s1.457,9.56-2.639,12.2
		C338.255,463.996,296.925,476.69,256.018,476.69z"/>
	<path style="fill:#A53D3D;" d="M423.724,397.241c-1.951,0-3.919-0.644-5.553-1.969c-3.787-3.072-4.37-8.633-1.306-12.42
		c27.577-34.048,42.161-77.921,42.169-126.852c0-4.873,3.955-8.828,8.828-8.828l0,0c4.873,0,8.828,3.955,8.828,8.828
		c-0.009,53.027-15.951,100.732-46.107,137.966C428.844,396.129,426.293,397.241,423.724,397.241z"/>
</g>
<g>
	<circle style="fill:#6B1E31;" cx="238.345" cy="220.69" r="35.31"/>
	<circle style="fill:#6B1E31;" cx="247.172" cy="97.103" r="35.31"/>
	<circle style="fill:#6B1E31;" cx="123.586" cy="158.897" r="35.31"/>
</g>
<g>
</g>
<g>
</g>
<g>
</g>
<g>
</g>
<g>
</g>
<g>
</g>
<g>
</g>
<g>
</g>
<g>
</g>
<g>
</g>
<g>
</g>
<g>
</g>
<g>
</g>
<g>
</g>
<g>
</g>
</svg>
