<?xml version="1.0" encoding="iso-8859-1"?>
<!-- Generator: Adobe Illustrator 19.0.0, SVG Export Plug-In . SVG Version: 6.00 Build 0)  -->
<svg version="1.1" id="Capa_1" xmlns="http://www.w3.org/2000/svg" xmlns:xlink="http://www.w3.org/1999/xlink" x="0px" y="0px"
	 viewBox="0 0 512 512" style="enable-background:new 0 0 512 512;" xml:space="preserve">
<path style="fill:#AFB6BB;" d="M229.517,44.138h-17.655c-29.255,0-52.966,23.711-52.966,52.966l0,0v79.448h52.966V97.103h17.655
	h105.931c14.627,0,26.483-11.855,26.483-26.483l0,0c0-14.627-11.855-26.483-26.483-26.483H229.517z"/>
<path style="fill:#DD352E;" d="M370.759,167.724H141.241c-29.246,0-52.966,23.711-52.966,52.966v17.655h335.448V220.69
	C423.724,191.435,400.004,167.724,370.759,167.724z"/>
<path style="fill:#E7ECED;" d="M432.508,467.862H79.492C35.584,467.862,0,432.278,0,388.37v-88.196
	c0-43.9,35.584-79.484,79.492-79.484h353.024c43.9,0,79.484,35.584,79.484,79.492v88.196
	C512,432.278,476.416,467.862,432.508,467.862z"/>
<g>
	<path style="fill:#AFB6BB;" d="M450.207,300.138c0,4.882,3.955,8.828,8.828,8.828H512v-8.783c0-3.001-0.194-5.95-0.53-8.872
		h-52.436C454.162,291.31,450.207,295.256,450.207,300.138z"/>
	<path style="fill:#AFB6BB;" d="M97.103,379.586c-4.873,0-8.828,3.946-8.828,8.828c0,4.882,3.955,8.828,8.828,8.828H511.47
		c0.327-2.913,0.53-5.87,0.53-8.872v-8.783H97.103z"/>
	<path style="fill:#AFB6BB;" d="M414.897,291.31H0.53c-0.335,2.913-0.53,5.87-0.53,8.872v8.783h414.897
		c4.873,0,8.828-3.946,8.828-8.828S419.769,291.31,414.897,291.31z"/>
	<path style="fill:#AFB6BB;" d="M52.966,379.586H0v8.783c0,3.001,0.194,5.959,0.53,8.872h52.436c4.873,0,8.828-3.946,8.828-8.828
		C61.793,383.532,57.838,379.586,52.966,379.586z"/>
</g>
<g>
</g>
<g>
</g>
<g>
</g>
<g>
</g>
<g>
</g>
<g>
</g>
<g>
</g>
<g>
</g>
<g>
</g>
<g>
</g>
<g>
</g>
<g>
</g>
<g>
</g>
<g>
</g>
<g>
</g>
</svg>
