<?xml version="1.0" encoding="iso-8859-1"?>
<!-- Generator: Adobe Illustrator 19.0.0, SVG Export Plug-In . SVG Version: 6.00 Build 0)  -->
<svg version="1.1" id="Capa_1" xmlns="http://www.w3.org/2000/svg" xmlns:xlink="http://www.w3.org/1999/xlink" x="0px" y="0px"
	 viewBox="0 0 512 512" style="enable-background:new 0 0 512 512;" xml:space="preserve">
<polygon style="fill:#891818;" points="308.966,35.31 326.621,0 185.379,0 203.034,35.31 "/>
<path style="fill:#E7ECED;" d="M256,220.69c-4.873,0-8.828-3.946-8.828-8.828v-35.31c0-4.882,3.955-8.828,8.828-8.828
	s8.828,3.946,8.828,8.828v35.31C264.828,216.744,260.873,220.69,256,220.69z"/>
<path style="fill:#B28C1F;" d="M256,252.69c8.201,0,16.181,0.847,23.967,2.278c1.58-3.39,2.516-12.641,2.516-16.622
	c0-14.627-11.855-26.483-26.483-26.483c-14.627,0-26.483,11.855-26.483,26.483c0,3.981,0.936,13.233,2.516,16.622
	C239.819,253.537,247.799,252.69,256,252.69z"/>
<circle style="fill:#EBBA16;" cx="256" cy="379.586" r="132.414"/>
<circle style="fill:#DC691D;" cx="256" cy="379.586" r="97.103"/>
<path style="fill:#DD352E;" d="M229.517,176.552h52.966l78.716-157.431C365.594,10.337,359.203,0,349.378,0h-31.585L229.517,176.552
	z"/>
<path style="fill:#B02721;" d="M194.207,0h-31.585c-9.825,0-16.216,10.337-11.82,19.121l78.716,157.431L256,123.586L194.207,0z"/>
<polygon style="fill:#FFFFFF;" points="256,317.793 273.655,353.103 308.966,348.69 282.483,379.586 308.966,410.483 
	273.655,406.069 256,441.379 238.345,406.069 203.034,410.483 229.517,379.586 203.034,348.69 238.345,353.103 "/>
<g>
</g>
<g>
</g>
<g>
</g>
<g>
</g>
<g>
</g>
<g>
</g>
<g>
</g>
<g>
</g>
<g>
</g>
<g>
</g>
<g>
</g>
<g>
</g>
<g>
</g>
<g>
</g>
<g>
</g>
</svg>
