<?xml version="1.0" encoding="iso-8859-1"?>
<!-- Generator: Adobe Illustrator 19.0.0, SVG Export Plug-In . SVG Version: 6.00 Build 0)  -->
<svg version="1.1" id="Capa_1" xmlns="http://www.w3.org/2000/svg" xmlns:xlink="http://www.w3.org/1999/xlink" x="0px" y="0px"
	 viewBox="0 0 512 512" style="enable-background:new 0 0 512 512;" xml:space="preserve">
<g>
	<path style="fill:#4B6582;" d="M256,66.207c-141.383,0-256,59.286-256,132.414v114.759c0,73.128,114.617,132.414,256,132.414
		s256-59.286,256-132.414V198.621C512,125.493,397.383,66.207,256,66.207z"/>
	<ellipse style="fill:#4B6582;" cx="256" cy="198.621" rx="256" ry="132.414"/>
</g>
<g>
	<path style="fill:#67849E;" d="M132.414,136.828c-3.708,0-7.159-2.357-8.386-6.065c-1.527-4.626,0.989-9.622,5.614-11.149
		c11.423-3.769,23.481-6.329,36.237-9.039c4.785-1.024,9.454,2.022,10.47,6.797c1.015,4.776-2.03,9.454-6.797,10.47
		c-12.279,2.604-23.879,5.076-34.383,8.545C134.259,136.686,133.332,136.828,132.414,136.828z"/>
	<path style="fill:#67849E;" d="M97.095,260.414c-1.395,0-2.798-0.327-4.114-1.024c-35.019-18.52-54.325-41.675-54.36-65.218
		c-0.035-21.274,15.272-40.218,45.506-56.311c4.299-2.286,9.657-0.653,11.944,3.646c2.286,4.299,0.662,9.649-3.646,11.944
		c-16.508,8.783-36.175,22.978-36.149,40.695c0.018,16.207,16.825,34.763,44.959,49.638c4.308,2.278,5.959,7.618,3.681,11.935
		C103.327,258.71,100.264,260.414,97.095,260.414z"/>
	<path style="fill:#67849E;" d="M256,295.724L256,295.724c-36.529-0.009-77.074-6.241-117.239-18.017
		c-4.679-1.368-7.353-6.268-5.985-10.955c1.368-4.687,6.294-7.353,10.955-5.985c38.577,11.308,77.4,17.293,112.269,17.302
		c4.873,0,8.828,3.955,8.828,8.828S260.873,295.724,256,295.724z"/>
</g>
<path style="fill:#28384C;" d="M256,331.034c-141.383,0-256-59.286-256-132.414v114.759c0,73.128,114.617,132.414,256,132.414
	s256-59.286,256-132.414V198.621C512,271.748,397.383,331.034,256,331.034z"/>
<g>
</g>
<g>
</g>
<g>
</g>
<g>
</g>
<g>
</g>
<g>
</g>
<g>
</g>
<g>
</g>
<g>
</g>
<g>
</g>
<g>
</g>
<g>
</g>
<g>
</g>
<g>
</g>
<g>
</g>
</svg>
