<?xml version="1.0" encoding="iso-8859-1"?>
<!-- Generator: Adobe Illustrator 19.0.0, SVG Export Plug-In . SVG Version: 6.00 Build 0)  -->
<svg version="1.1" id="Capa_1" xmlns="http://www.w3.org/2000/svg" xmlns:xlink="http://www.w3.org/1999/xlink" x="0px" y="0px"
	 viewBox="0 0 512 512" style="enable-background:new 0 0 512 512;" xml:space="preserve">
<path style="fill:#E7ECED;" d="M256,0c-28.751,0-56.373,4.811-82.176,13.559c1.527,3.663,0.618,8.739-4.158,10.611
	c-21.954,8.607-37.597,18.079-55.587,33.483c-15.431,13.206-34.066,26.324-46.557,42.425c-4.07,5.244-10.284,1.562-11.652-3.619
	C20.939,140.217,0,195.646,0,256c0,2.666,0.124,5.305,0.203,7.954c3.893-0.353,8.13,1.907,8.227,6.947
	c0.768,39.821,19.694,77.956,35.416,113.823c1.783,4.069-0.177,7.83-3.081,9.79c35.222,54.616,90.668,94.888,155.719,110.407
	c1.501-2.569,4.273-4.467,7.954-3.84c28.531,4.864,73.887,14.901,101.941,1.289c3.849-1.871,7.406-0.203,9.419,2.481
	c65.059-15.598,120.479-55.949,155.648-110.636c-1.271-2.489-1.262-5.597,1.183-8.218c6.153-6.594,5.738-16.437,8.51-24.594
	c2.586-7.618,6.841-14.645,10.205-21.919c10.593-22.908,11.343-43.997,14.716-68.317c0.503-3.637,2.966-5.199,5.703-5.252
	c0.115-3.301,0.238-6.594,0.238-9.913C512,114.617,397.383,0,256,0z"/>
<path style="fill:#4B6582;" d="M335.104,12.518L256,79.448v79.448l88.276,70.621l79.448-26.483L458.319,99.24
	C427.202,59.136,384.45,28.54,335.104,12.518z"/>
<path style="fill:#28384C;" d="M176.896,12.518L256,79.448v79.448l-88.276,70.621l-79.448-26.483L53.681,99.24
	C84.798,59.136,127.55,28.54,176.896,12.518z"/>
<path style="fill:#4B6582;" d="M88.276,203.034L0.194,263.592c1.439,49.32,16.781,95.135,42.311,133.65h116.392l44.138-61.793
	l-35.31-105.931L88.276,203.034z"/>
<path style="fill:#28384C;" d="M423.918,203.034L512,263.592c-1.439,49.32-16.79,95.135-42.319,133.65H353.298l-44.138-61.793
	l35.31-105.931L423.918,203.034z"/>
<path style="fill:#67849E;" d="M256,335.448h-52.966l-44.138,61.793l35.769,107.308C214.325,509.387,234.849,512,256,512
	s41.675-2.613,61.334-7.451l35.769-107.308l-44.138-61.793H256z"/>
<g>
</g>
<g>
</g>
<g>
</g>
<g>
</g>
<g>
</g>
<g>
</g>
<g>
</g>
<g>
</g>
<g>
</g>
<g>
</g>
<g>
</g>
<g>
</g>
<g>
</g>
<g>
</g>
<g>
</g>
</svg>
