<?xml version="1.0" encoding="iso-8859-1"?>
<!-- Generator: Adobe Illustrator 19.0.0, SVG Export Plug-In . SVG Version: 6.00 Build 0)  -->
<svg version="1.1" id="Capa_1" xmlns="http://www.w3.org/2000/svg" xmlns:xlink="http://www.w3.org/1999/xlink" x="0px" y="0px"
	 viewBox="0 0 512 512" style="enable-background:new 0 0 512 512;" xml:space="preserve">
<circle style="fill:#23A24D;" cx="256" cy="256" r="256"/>
<g>
	<path style="fill:#F7E6A1;" d="M228.846,97.986c-25.194-2.613-49.761,0.512-73.34,9.401l-26.068,10.849l-44.482,19.694
		c-10.072,4.431-31.382,4.988-50.37-10.381c-2.984,5.129-5.817,10.355-8.448,15.695c23.005,17.09,49.717,17.982,65.942,10.831
		l44.314-19.624l25.609-10.664c20.71-7.804,42.593-10.593,65.006-8.254c60.734,6.321,126.093,52.966,126.093,140.465
		s-65.359,134.144-126.084,140.456c-22.431,2.33-44.306-0.45-64.733-8.148l-25.706-10.69l-44.509-19.703
		c-16.225-7.15-42.955-6.25-65.933,10.831c2.631,5.349,5.464,10.584,8.457,15.713c18.988-15.36,40.298-14.839,50.353-10.399
		l44.676,19.774l26.156,10.876c23.296,8.792,47.872,11.935,73.066,9.295c68.352-7.097,141.912-59.569,141.912-158.005
		S297.198,105.092,228.846,97.986z"/>
	<path style="fill:#F7E6A1;" d="M353.103,256c0,4.873,3.955,8.828,8.828,8.828h149.848c0.097-2.94,0.221-5.87,0.221-8.828
		c0-2.957-0.124-5.888-0.221-8.828H361.931C357.058,247.172,353.103,251.127,353.103,256z"/>
</g>
<g>
</g>
<g>
</g>
<g>
</g>
<g>
</g>
<g>
</g>
<g>
</g>
<g>
</g>
<g>
</g>
<g>
</g>
<g>
</g>
<g>
</g>
<g>
</g>
<g>
</g>
<g>
</g>
<g>
</g>
</svg>
